<?xml version="1.0" standalone="no"?>
<!DOCTYPE svg PUBLIC "-//W3C//DTD SVG 20010904//EN"
 "http://www.w3.org/TR/2001/REC-SVG-20010904/DTD/svg10.dtd">
<svg version="1.0" xmlns="http://www.w3.org/2000/svg"
 width="1280.000000pt" height="1280.000000pt" viewBox="0 0 1280.000000 1280.000000"
 preserveAspectRatio="xMidYMid meet">
<metadata>
Created by potrace 1.14, written by Peter Selinger 2001-2017
</metadata>
<g transform="translate(0.000000,1280.000000) scale(0.100000,-0.100000)"
fill="#000000" stroke="none">
<path d="M0 6400 l0 -6400 6400 0 6400 0 0 6400 0 6400 -6400 0 -6400 0 0
-6400z m68 6373 c-10 -2 -26 -2 -35 0 -10 3 -2 5 17 5 19 0 27 -2 18 -5z m545
0 c-78 -2 -208 -2 -290 0 -81 1 -17 3 142 3 160 0 226 -2 148 -3z m225 0 c-10
-2 -28 -2 -40 0 -13 2 -5 4 17 4 22 1 32 -1 23 -4z m370 0 c-10 -2 -28 -2 -40
0 -13 2 -5 4 17 4 22 1 32 -1 23 -4z m375 0 c-57 -2 -149 -2 -205 0 -57 1 -11
3 102 3 113 0 159 -2 103 -3z m715 0 c-27 -2 -69 -2 -95 0 -27 2 -5 3 47 3 52
0 74 -1 48 -3z m219 0 c-20 -2 -52 -2 -70 0 -17 2 0 4 38 4 39 0 53 -2 32 -4z
m126 0 c-7 -2 -21 -2 -30 0 -10 3 -4 5 12 5 17 0 24 -2 18 -5z m7315 0 c-423
-2 -1113 -2 -1535 0 -423 1 -77 2 767 2 844 0 1190 -1 768 -2z m-3166 -1204
c48 -7 88 -16 88 -20 0 -5 33 -9 73 -9 118 0 331 -44 456 -96 43 -17 60 -19
78 -11 28 12 119 -20 259 -93 99 -51 388 -249 442 -302 177 -175 247 -239 277
-255 17 -9 71 -48 120 -87 198 -158 263 -198 505 -311 250 -116 430 -215 430
-237 0 -8 -2 -7 -181 71 -63 28 -119 51 -122 51 -33 0 -309 117 -453 192 -244
128 -354 201 -559 373 -115 97 -352 285 -410 327 -115 82 -321 189 -458 237
-261 92 -479 98 -892 25 -171 -30 -437 -84 -448 -91 -4 -2 -54 -8 -111 -12
-76 -5 -114 -13 -145 -29 -24 -13 -100 -36 -169 -53 -336 -79 -379 -92 -464
-135 -91 -46 -107 -46 -60 -2 46 45 404 179 582 219 64 14 100 27 100 35 0 19
38 36 180 83 135 45 357 102 485 125 99 18 279 20 397 5z m376 -294 c109 -51
162 -114 162 -193 0 -71 -31 -95 -210 -168 -126 -50 -206 -57 -282 -22 -103
48 -163 125 -174 225 -10 96 30 124 206 147 63 8 126 19 140 25 43 17 103 12
158 -14z m-1233 -15 c22 -5 80 -17 129 -25 103 -19 152 -41 191 -87 24 -28 27
-38 23 -88 -5 -74 -33 -126 -95 -176 -70 -57 -150 -87 -238 -88 -65 0 -77 3
-170 51 -55 28 -116 58 -136 68 -105 47 -65 193 83 302 72 52 128 63 213 43z
m-457 -476 c44 -4 70 -12 83 -25 22 -22 25 -58 7 -81 -20 -26 -135 -66 -241
-84 -82 -15 -103 -16 -133 -5 -76 28 -133 25 -214 -9 -241 -104 -369 -177
-444 -256 -51 -53 -99 -139 -116 -207 -9 -34 -32 -70 -81 -130 -38 -45 -106
-135 -151 -199 -65 -93 -87 -118 -105 -118 -46 0 -48 35 -8 161 96 299 325
638 531 785 125 89 286 158 406 173 64 8 350 5 466 -5z m-1003 -96 c-62 -50
-230 -223 -385 -397 -41 -46 -100 -100 -130 -121 -69 -47 -251 -138 -350 -175
-41 -16 -88 -37 -105 -47 -16 -10 -38 -18 -48 -18 -19 0 -18 19 9 153 8 38 14
70 14 73 0 2 24 19 53 39 71 46 184 88 220 81 43 -9 198 74 262 139 57 57 169
129 189 122 8 -3 24 5 36 18 12 13 66 49 119 81 53 31 105 63 116 70 39 25 39
14 0 -18z m3509 -141 c33 -15 91 -52 130 -82 45 -34 102 -66 155 -86 102 -39
154 -82 171 -143 38 -138 -102 -226 -360 -226 -53 0 -150 -7 -215 -16 -213
-28 -342 -8 -418 64 -44 42 -59 78 -64 161 -4 67 -2 81 19 121 27 50 78 84
141 94 63 10 132 44 157 78 53 72 171 87 284 35z m-2744 -47 c47 -27 110 -55
142 -64 88 -25 126 -80 116 -171 -11 -91 -120 -195 -290 -274 -123 -58 -168
-73 -313 -106 -151 -34 -253 -34 -323 1 -84 42 -119 114 -101 210 32 169 158
277 494 420 125 54 154 52 275 -16z m-1820 -366 c0 -27 -45 -254 -61 -309 -73
-248 -240 -410 -434 -423 -97 -6 -162 15 -251 80 -40 29 -87 61 -105 71 l-34
19 30 24 c35 28 329 232 497 345 103 70 330 198 351 199 4 0 7 -3 7 -6z m6278
-197 c207 -181 433 -434 448 -500 19 -87 -92 -70 -231 36 -110 83 -152 125
-215 219 -34 51 -79 111 -100 133 -59 63 -78 97 -100 176 -11 40 -20 79 -20
86 0 20 111 -56 218 -150z m-7166 -428 c16 -9 19 -17 14 -41 -3 -16 -15 -37
-25 -46 -31 -26 -60 -130 -76 -271 -17 -143 -23 -162 -90 -305 -72 -153 -86
-221 -86 -413 0 -90 2 -172 6 -183 6 -19 35 -29 35 -12 0 4 2 68 3 142 4 158
18 208 118 417 34 70 66 139 71 153 28 71 54 -186 30 -290 -12 -48 -46 -244
-57 -324 -4 -28 -20 -77 -36 -111 -16 -34 -29 -67 -29 -73 0 -21 28 -13 33 10
6 20 9 18 37 -24 33 -49 50 -143 50 -274 0 -42 8 -84 26 -130 44 -118 95 -276
92 -285 -4 -12 -193 157 -279 248 -57 61 -73 86 -118 194 -76 180 -121 390
-121 569 0 141 48 429 97 583 8 27 39 80 68 119 29 39 76 117 104 173 27 56
56 105 64 108 8 3 17 22 21 41 7 38 15 42 48 25z m2818 -271 c38 -154 282
-676 429 -921 39 -64 71 -121 71 -126 0 -5 -12 -11 -26 -14 -19 -3 -60 13
-147 57 -135 69 -198 88 -367 110 -154 21 -212 39 -325 104 -101 59 -172 122
-256 230 -80 101 -109 121 -123 85 -8 -20 15 -55 123 -190 116 -146 390 -389
588 -523 41 -27 70 -50 63 -50 -6 0 -56 7 -111 17 l-100 16 -88 93 c-162 171
-352 405 -465 574 -59 87 -236 435 -236 462 0 17 20 28 49 28 18 0 38 -37 61
-112 12 -40 33 -63 50 -53 5 3 10 31 10 60 0 69 25 134 54 140 58 13 143 25
170 25 27 0 35 -8 68 -63 57 -97 118 -159 247 -246 144 -97 190 -147 259 -279
82 -157 187 -282 236 -282 29 0 17 28 -47 112 -176 231 -241 370 -292 626 -35
172 -37 162 35 162 l59 0 11 -42z m447 1 c166 -21 182 -24 186 -43 62 -278
137 -507 242 -741 30 -68 55 -128 55 -134 0 -5 -37 19 -82 55 -46 35 -139 106
-208 157 -148 109 -204 173 -315 357 -43 73 -85 135 -93 137 -7 3 -18 1 -25
-6 -19 -19 99 -228 263 -466 108 -157 166 -255 150 -255 -23 0 -181 170 -235
253 -74 114 -272 541 -310 668 l-15 52 103 -6 c56 -3 184 -16 284 -28z m2523
-81 c15 -32 20 -66 20 -130 0 -91 12 -117 37 -82 18 25 31 74 46 168 l11 78
45 -6 c24 -3 46 -7 47 -9 6 -5 -101 -288 -138 -368 -153 -331 -365 -541 -727
-724 -40 -20 -85 -40 -99 -46 -25 -8 -24 -7 8 22 19 17 105 84 190 148 208
158 306 248 398 368 53 68 141 224 135 239 -9 24 -32 15 -49 -18 -54 -106
-180 -240 -328 -350 -112 -84 -178 -114 -297 -138 -153 -31 -244 -57 -338 -97
-81 -35 -85 -36 -135 -23 -28 7 -56 15 -63 19 -7 4 6 33 39 86 96 154 354 704
344 731 -10 25 -19 13 -117 -151 -72 -122 -203 -306 -283 -400 -15 -18 18 60
80 186 100 205 125 276 98 286 -7 2 -55 -61 -108 -141 -65 -99 -119 -168 -168
-213 -39 -38 -118 -114 -175 -170 -72 -70 -118 -107 -149 -119 -24 -9 -47 -14
-51 -11 -7 7 30 111 65 182 31 64 201 347 240 400 16 22 68 84 115 137 85 95
87 97 139 102 95 10 429 28 434 24 8 -9 -48 -214 -82 -296 -45 -109 -162 -341
-204 -405 -30 -44 -34 -77 -11 -77 12 0 76 91 191 272 119 186 221 287 396
390 72 42 157 97 190 121 76 56 75 55 162 56 l73 1 19 -42z m-1755 -33 c71 -8
153 -15 181 -15 l52 0 -18 -82 c-35 -160 -72 -255 -198 -510 -87 -177 -131
-258 -142 -258 -39 0 -80 126 -106 323 -22 163 -20 276 4 377 11 47 24 109 28
138 7 52 7 52 38 47 17 -3 89 -12 161 -20z m-2301 -136 c124 -246 251 -423
456 -632 113 -117 141 -150 130 -157 -12 -8 -10 -10 9 -10 22 0 176 -108 168
-117 -3 -2 -40 8 -83 21 -220 69 -344 70 -547 7 -160 -51 -248 -59 -377 -37
-187 33 -380 115 -529 227 -78 58 -301 271 -301 288 0 16 278 211 411 288 l36
21 82 -99 c86 -104 213 -214 400 -349 133 -95 200 -133 341 -195 118 -53 133
-56 137 -35 3 10 -18 26 -59 47 -189 94 -466 372 -642 645 l-56 88 38 16 c92
40 289 113 304 114 11 0 37 -41 82 -131z m4699 27 c-2 -35 -128 -241 -231
-379 -46 -62 -146 -175 -223 -252 -76 -77 -139 -146 -139 -153 0 -19 30 -14
64 11 17 13 72 47 121 77 231 137 555 372 654 473 83 83 55 87 227 -32 136
-94 239 -172 239 -181 0 -4 -22 -26 -50 -50 -152 -132 -387 -236 -820 -364
-302 -89 -306 -90 -420 -71 -197 32 -376 11 -623 -75 -95 -33 -172 -56 -172
-52 0 4 41 28 92 52 106 52 417 255 516 337 193 161 321 309 500 580 l114 171
76 -33 c70 -29 77 -35 75 -59z m793 -502 c5 -19 -285 -332 -398 -429 -184
-158 -300 -218 -541 -279 -390 -100 -906 -148 -1084 -102 l-73 18 0 43 c0 30
5 45 16 49 8 3 84 10 167 16 156 10 447 41 572 61 146 23 396 92 575 159 209
77 570 302 700 434 42 44 60 52 66 30z m-6521 -95 c233 -213 369 -297 728
-450 179 -77 287 -112 407 -133 52 -10 183 -35 290 -56 107 -22 236 -45 287
-52 50 -7 90 -15 87 -19 -9 -15 -146 -38 -289 -49 -82 -6 -195 -21 -250 -32
-126 -27 -270 -27 -415 0 -58 11 -181 34 -275 52 -280 52 -451 102 -596 176
-58 29 -198 144 -261 214 -50 55 -80 63 -86 22 -2 -16 17 -49 66 -110 136
-170 210 -225 504 -375 129 -66 209 -100 260 -112 40 -9 164 -47 276 -86 227
-77 465 -138 652 -168 166 -26 392 -59 460 -67 72 -8 130 -23 130 -33 0 -13
-162 -32 -335 -38 -380 -14 -657 54 -1172 288 -97 44 -186 79 -197 77 -35 -5
-31 -41 6 -70 61 -46 227 -148 315 -193 107 -55 82 -59 -66 -10 -251 84 -620
297 -892 516 -105 85 -199 184 -199 209 0 29 222 380 240 380 5 0 48 -26 97
-58 116 -78 213 -129 483 -257 280 -133 426 -197 510 -224 127 -41 245 -69
254 -61 12 12 0 40 -18 40 -22 0 -277 105 -411 169 -250 120 -436 247 -643
440 l-123 114 27 29 c15 15 30 28 33 28 3 0 56 -45 116 -101z m6832 -232 c79
-105 99 -142 107 -193 5 -38 1 -49 -51 -130 -87 -135 -184 -262 -260 -336 -73
-71 -101 -86 -353 -185 -63 -25 -225 -92 -360 -150 -391 -168 -654 -258 -886
-303 -144 -28 -164 -24 -29 6 147 31 389 104 555 165 226 84 531 243 547 285
12 32 -13 33 -102 5 -143 -46 -538 -150 -633 -166 -87 -15 -392 -33 -382 -22
3 3 50 13 105 22 159 25 326 69 540 141 409 137 615 234 847 401 156 112 343
296 336 332 -6 29 -32 22 -78 -21 -63 -58 -143 -108 -301 -188 -198 -101 -447
-197 -598 -231 -214 -49 -451 -62 -598 -34 -43 8 -125 16 -183 16 l-105 2 80
8 c44 5 134 13 200 19 519 49 871 149 1127 320 88 60 277 206 363 283 22 20
42 36 45 36 3 0 33 -36 67 -82z m-3407 29 c73 -3 274 -110 338 -179 27 -29 71
-137 78 -190 5 -41 3 -45 -86 -157 -195 -248 -410 -552 -410 -582 0 -31 26
-20 55 25 60 91 365 375 440 409 45 20 52 -2 60 -190 11 -259 10 -270 -18
-387 -38 -156 -48 -292 -43 -591 l4 -260 -139 -47 c-176 -59 -263 -102 -315
-153 -41 -41 -43 -41 -92 -33 -27 4 -67 16 -89 27 -40 21 -101 82 -123 123
-12 21 -13 21 -51 -24 -39 -45 -40 -45 -68 -31 -34 17 -36 26 -51 173 -26 267
1 555 67 716 13 33 45 103 70 155 113 237 147 340 109 327 -6 -2 -35 -39 -65
-83 -29 -43 -104 -142 -166 -219 -61 -77 -124 -158 -138 -179 -36 -54 -42 -34
-34 107 12 215 76 417 196 619 125 210 278 388 406 475 102 69 115 98 54 123
-57 24 -255 -9 -336 -56 -107 -62 -207 -273 -298 -625 l-34 -134 0 62 c-2 131
61 400 131 566 38 92 46 127 25 127 -22 0 -373 -166 -422 -200 -187 -129 -253
-323 -190 -565 15 -56 77 -212 136 -340 29 -63 55 -195 39 -195 -4 0 -39 65
-80 145 -111 218 -115 206 -56 -151 59 -358 68 -432 64 -544 l-3 -95 -32 87
c-61 164 -115 415 -133 608 -6 69 -20 208 -32 310 -11 102 -21 244 -22 315 0
117 2 138 28 215 15 47 41 110 58 141 53 101 180 174 424 244 205 59 332 84
464 92 78 4 114 10 122 21 9 11 24 12 63 7 27 -4 70 -8 95 -9z m796 -377 c17
-19 20 -46 27 -258 5 -130 9 -263 10 -296 1 -79 -27 -242 -66 -385 -34 -126
-39 -223 -23 -440 l7 -105 -51 -87 c-28 -49 -56 -88 -62 -88 -5 0 -8 29 -7 73
1 39 -1 169 -5 287 -10 261 -1 348 60 590 53 207 70 353 67 573 -1 167 3 180
43 136z m245 -194 c19 -8 27 -14 19 -14 -18 0 -79 27 -64 28 7 1 27 -6 45 -14z
m189 -35 l65 -9 -80 4 c-44 3 -93 9 -110 14 -26 9 -24 10 15 5 25 -3 74 -9
110 -14z m-30 -1261 c0 -5 -6 -6 -13 -3 -8 3 -26 0 -41 -6 l-28 -10 24 29 c21
26 25 27 41 13 9 -8 17 -19 17 -23z m-51 -36 c30 6 32 5 61 -60 36 -78 36 -87
9 -107 -32 -22 -14 -39 22 -21 53 28 33 -6 -58 -95 -159 -156 -330 -268 -668
-438 -214 -108 -278 -135 -337 -146 l-38 -7 0 38 c0 100 -49 289 -96 370 l-24
41 68 34 c61 31 141 59 477 165 209 67 387 144 505 218 22 14 37 19 41 12 4
-5 21 -7 38 -4z m-2461 -73 c205 -115 366 -180 697 -279 116 -35 204 -84 223
-124 13 -26 10 -35 -31 -120 -51 -106 -70 -190 -61 -271 4 -31 3 -56 -2 -56
-8 0 -220 79 -269 101 -11 5 -116 41 -234 79 -118 39 -223 75 -233 81 -19 10
-73 113 -138 264 -30 69 -35 91 -35 160 0 44 2 91 5 104 10 46 -18 32 -37 -20
l-20 -51 -12 30 c-12 28 -10 36 19 91 18 34 34 61 37 61 2 0 43 -22 91 -50z
m2581 0 c11 -24 11 -24 -3 -6 -9 11 -16 24 -16 30 0 12 5 7 19 -24z m-142
-437 c-75 -148 -49 -103 -427 -753 -162 -278 -307 -529 -324 -559 -34 -63 -26
-72 -81 99 -49 154 -104 280 -199 452 -30 56 -36 76 -36 128 0 65 12 100 35
100 7 0 16 8 19 18 11 34 217 144 421 224 79 31 165 77 233 126 35 25 103 70
152 101 96 60 124 81 209 152 31 26 58 45 59 43 2 -1 -25 -60 -61 -131z
m-1172 -50 c-9 -22 -22 -76 -30 -123 l-5 -35 -108 -3 c-59 -2 -115 -5 -124 -8
-16 -5 -18 2 -18 59 0 88 13 99 138 113 150 17 155 17 147 -3z m53 -80 c-3
-77 -3 -78 -31 -81 l-27 -3 6 58 c7 57 27 103 46 103 5 0 8 -34 6 -77z m-691
-281 c161 -62 176 -70 238 -121 27 -23 55 -41 62 -41 6 0 14 -12 17 -27 28
-155 29 -162 12 -198 -9 -19 -18 -35 -20 -35 -2 0 -23 25 -46 55 -44 57 -84
73 -97 40 -7 -20 21 -111 58 -189 l27 -59 -18 -61 c-30 -95 -70 -272 -70 -307
0 -17 -4 -29 -9 -27 -16 5 -255 379 -341 533 -146 260 -320 589 -320 605 0 9
333 -101 507 -168z m3467 -2361 c-28 -82 22 -132 143 -141 l77 -5 -34 -28
c-42 -36 -58 -42 -192 -78 -195 -51 -290 -89 -508 -197 -203 -101 -218 -107
-278 -108 -62 0 -81 -10 -82 -41 0 -35 103 -57 162 -34 86 33 119 49 165 78
69 43 189 103 206 103 7 0 25 -14 40 -31 28 -32 47 -31 47 1 0 14 5 18 17 13
14 -5 15 -1 10 30 -5 31 -3 37 12 37 10 0 21 -9 24 -20 8 -30 24 -24 32 10 4
17 11 30 16 30 5 0 8 -3 8 -7 -4 -26 3 -73 10 -73 11 0 24 34 25 67 2 32 14
41 87 62 129 36 222 46 327 33 53 -7 114 -12 134 -12 42 0 63 -22 75 -80 15
-78 61 -125 136 -140 41 -8 40 -8 -23 -9 -36 -1 -84 -6 -108 -11 -79 -19 -306
-40 -423 -40 -158 0 -237 -19 -389 -95 -69 -34 -162 -77 -207 -95 -84 -34
-110 -60 -92 -92 11 -20 80 -14 124 12 17 9 46 23 65 30 19 8 47 22 62 32 32
22 58 14 58 -18 0 -24 40 -96 59 -108 15 -10 24 33 10 50 -9 11 -8 18 6 34 22
24 13 54 -14 47 -30 -8 -35 23 -9 50 13 13 38 27 57 33 29 8 36 6 57 -17 18
-20 24 -37 24 -74 0 -49 15 -73 31 -48 15 24 10 113 -7 137 -9 13 -13 26 -9
30 4 4 79 8 168 10 89 1 198 7 241 12 145 18 151 17 219 -46 59 -55 61 -56
113 -52 69 4 70 -10 4 -52 -46 -29 -52 -31 -68 -17 -30 26 -80 47 -114 47 -42
0 -128 -25 -288 -84 -69 -25 -186 -64 -260 -86 -251 -77 -293 -97 -404 -195
-41 -37 -56 -57 -56 -76 0 -39 27 -44 64 -14 104 85 211 153 251 159 6 1 15 5
21 9 7 4 47 16 90 26 119 30 243 68 299 92 28 12 65 27 83 35 46 20 50 18 66
-21 8 -19 22 -38 30 -41 9 -3 14 -10 11 -14 -3 -4 9 -13 25 -20 17 -7 30 -16
30 -20 0 -7 -90 -50 -104 -50 -4 0 -25 -9 -49 -19 -23 -11 -91 -40 -152 -66
-60 -26 -128 -57 -150 -70 -52 -29 -323 -79 -398 -72 -28 2 -87 15 -130 27
-76 23 -80 23 -130 7 -72 -23 -100 -25 -472 -42 -181 -8 -350 -17 -374 -21
-49 -6 -49 -9 9 71 20 28 67 106 105 175 37 69 91 167 119 217 112 204 188
284 558 596 l56 48 35 -31 c19 -16 40 -30 46 -30 6 0 11 -4 11 -10 0 -12 27
-13 34 -1 3 5 -6 35 -20 66 -23 52 -24 60 -10 73 18 18 28 12 30 -19 1 -31 24
-35 35 -7 l10 23 0 -23 c1 -13 6 -33 12 -44 11 -21 12 -21 25 -3 19 25 18 85
-2 113 -8 12 -12 27 -9 32 3 6 43 28 88 51 77 38 126 52 227 66 92 12 155 19
157 18 1 0 -5 -20 -13 -44z m206 23 c63 -12 93 -61 51 -84 -28 -14 -174 -13
-189 2 -18 18 -15 55 6 76 18 18 56 20 132 6z m442 -386 c30 -21 68 -70 68
-87 0 -16 -47 -13 -87 6 -36 17 -53 46 -53 89 0 22 3 24 23 18 12 -3 34 -15
49 -26z m68 -283 c20 -18 20 -20 4 -32 -29 -21 -79 -16 -113 13 -46 38 -40 47
29 42 40 -3 66 -11 80 -23z m-7185 -156 c33 -5 132 -13 220 -18 318 -19 381
-23 465 -32 47 -5 144 -13 215 -19 72 -5 162 -14 200 -20 223 -33 287 -43 355
-57 41 -9 98 -20 125 -26 132 -26 406 -120 688 -237 55 -22 108 -40 119 -40
10 0 28 -5 38 -10 22 -12 195 -49 255 -55 74 -7 145 -18 145 -22 0 -8 -61
-310 -70 -348 -5 -22 -19 -80 -30 -130 -11 -49 -39 -158 -61 -241 -41 -150
-42 -152 -78 -169 -20 -9 -56 -28 -81 -43 -25 -14 -47 -26 -50 -26 -3 0 -13
-7 -22 -15 -32 -27 -122 -73 -192 -98 -130 -46 -429 -57 -575 -22 -80 19 -393
105 -471 129 -131 40 -426 58 -690 41 -420 -27 -496 -26 -634 10 l-38 10 36
36 c19 20 40 51 46 69 l11 33 112 3 c149 5 236 32 410 124 15 9 27 13 27 10 0
-4 17 3 37 14 20 10 57 22 82 25 85 11 91 14 91 40 0 39 -32 49 -160 50 -133
0 -297 -20 -560 -70 -217 -41 -404 -63 -436 -51 -15 6 -12 12 20 45 31 31 39
49 44 88 2 26 10 51 16 55 20 14 320 110 385 124 35 7 72 16 83 20 16 5 15 1
-6 -31 -19 -28 -24 -44 -19 -68 8 -46 18 -52 42 -26 26 28 37 83 22 115 -9 21
-8 24 12 25 12 1 31 3 42 4 175 22 227 26 275 20 53 -6 59 -5 74 16 15 22 15
25 -3 43 -17 16 -35 19 -138 20 -158 1 -282 -23 -583 -116 -250 -77 -327 -98
-367 -98 -40 0 -51 15 -21 31 41 22 61 48 73 96 15 59 5 106 -30 143 -15 16
-24 33 -21 39 12 18 110 69 186 94 72 25 163 42 365 68 50 6 128 18 175 26 47
8 167 16 267 19 185 4 299 21 314 46 27 42 2 63 -130 107 -94 31 -95 31 -314
31 -220 0 -369 -10 -547 -35 -52 -8 -96 -12 -99 -10 -2 3 4 14 14 25 33 37 28
180 -6 180 -5 0 -9 6 -9 14 0 9 25 22 63 34 68 22 190 27 292 11z m7013 -82
c7 -6 12 -24 10 -41 -3 -29 -6 -31 -44 -34 -33 -2 -48 2 -73 24 -42 35 -37 57
14 65 44 6 73 2 93 -14z m-7400 -13 c19 -13 23 -23 20 -62 -3 -45 -5 -48 -49
-70 -25 -12 -53 -20 -62 -16 -37 14 -32 85 10 134 28 34 48 37 81 14z m3411
-394 c57 -16 106 -31 109 -34 4 -5 -89 -393 -119 -491 -5 -16 -31 -109 -58
-205 -107 -378 -182 -610 -196 -610 -16 0 -175 118 -175 130 0 5 13 51 29 102
109 348 161 561 262 1081 9 41 16 57 28 57 9 0 63 -14 120 -30z m-3618 -191
c71 -51 6 -210 -70 -170 -40 22 -38 120 5 166 28 30 28 30 65 4z m139 -338 c0
-35 -34 -81 -60 -81 -24 0 -40 29 -40 69 0 31 10 37 73 40 23 1 27 -3 27 -28z
m680 -159 c0 -24 -184 -49 -235 -33 -25 8 -19 9 41 10 40 1 87 8 105 16 37 16
89 20 89 7z m-365 -131 c7 -24 -12 -56 -42 -70 -30 -14 -53 -4 -53 23 0 51 81
91 95 47z"/>
<path d="M6730 5885 c0 -2 11 -20 23 -39 26 -37 48 -123 67 -253 15 -98 15
-99 132 -54 164 64 288 140 288 178 0 19 -8 16 -49 -16 -97 -76 -206 -126
-253 -116 -38 9 -72 62 -93 143 -20 78 -69 162 -96 162 -10 0 -19 -2 -19 -5z"/>
<path d="M8491 2304 c-63 -13 -85 -23 -147 -70 -70 -53 -92 -82 -79 -104 11
-18 29 -11 79 32 52 45 129 77 184 78 50 0 94 26 90 53 -4 28 -30 30 -127 11z"/>
<path d="M9317 2275 c-13 -12 -14 -21 -7 -36 13 -24 17 -24 30 1 7 12 7 26 2
36 -8 14 -10 14 -25 -1z"/>
<path d="M8480 2174 c-24 -13 -59 -24 -77 -24 -27 0 -34 -5 -39 -26 -11 -41 6
-48 81 -31 74 17 115 47 115 84 0 29 -20 28 -80 -3z"/>
<path d="M2750 2154 c-13 -33 -13 -54 0 -34 6 9 10 10 10 3 0 -6 -5 -15 -10
-18 -10 -6 -8 -80 2 -90 7 -7 53 55 62 83 5 15 1 31 -14 52 -26 37 -38 38 -50
4z"/>
<path d="M3145 2168 c-14 -43 -8 -108 10 -108 17 0 22 9 29 54 8 44 -26 91
-39 54z"/>
<path d="M3220 2155 c-15 -18 -5 -65 14 -65 7 0 19 11 26 25 11 20 11 27 0 40
-16 19 -24 19 -40 0z"/>
<path d="M4018 2064 c-15 -15 -8 -44 15 -58 13 -9 61 -18 119 -22 92 -7 96 -6
108 16 18 33 1 43 -83 51 -39 4 -90 10 -112 14 -22 4 -43 3 -47 -1z"/>
<path d="M3980 1873 c-32 -6 -60 -31 -60 -54 0 -23 17 -28 59 -17 44 12 115
-5 153 -38 23 -19 33 -22 49 -14 76 41 -90 143 -201 123z"/>
<path d="M3024 1699 c3 -17 6 -44 6 -60 0 -32 17 -39 27 -11 3 9 14 25 25 35
25 25 23 46 -8 57 -46 18 -57 13 -50 -21z"/>
<path d="M2530 1566 c-10 -32 -10 -40 1 -47 8 -5 10 -9 5 -9 -5 0 -4 -6 1 -12
6 -7 13 -25 17 -40 9 -38 18 -35 41 15 22 47 22 77 0 77 -7 0 -22 12 -33 27
l-19 26 -13 -37z"/>
<path d="M3927 1514 c-11 -12 -8 -51 6 -62 7 -6 43 -13 81 -16 42 -3 82 -13
103 -26 39 -23 59 -25 66 -7 16 42 -48 89 -138 101 -27 4 -64 9 -80 12 -17 3
-34 2 -38 -2z"/>
<path d="M3152 1391 c-16 -10 -19 -108 -3 -124 12 -12 35 29 26 50 -3 9 3 26
16 39 11 12 18 27 14 33 -7 13 -35 14 -53 2z"/>
<path d="M2647 1267 c-8 -21 25 -127 39 -127 18 0 25 30 18 76 -7 50 -45 83
-57 51z"/>
<path d="M3983 1133 c-45 -4 -69 -24 -59 -48 5 -13 22 -15 93 -14 65 2 96 -2
120 -14 42 -22 60 -21 68 4 9 27 -18 56 -64 69 -35 10 -74 10 -158 3z"/>
</g>
</svg>
